<?xml version="1.0"?>
<svg version="1.1" xmlns="http://www.w3.org/2000/svg" width="400px" height="200px" style=""><path fill="#80699d" d="M51.945,116.2l0-2.295l2.025-0.81l0-12.744l-2.025-0.81l0-2.241l8.235-0.135l0,2.376l-2.025,0.81l0,4.644l1.836,0l4.509-7.695l4.995-0.135l0,2.376l-2.565,0.756l-3.537,5.886l5.022,6.912l2.025,0.81l0,2.295l-8.235,0l0-2.295l1.62-0.81l-3.699-5.13l-1.971,0l0,5.13l2.025,0.81l0,2.295l-8.235,0z M73.39677,116.2l0-2.295l2.025-0.81l0-12.69l-2.025-0.81l0-2.295l8.235-0.135l0,2.43l-2.025,0.81l0,12.69l2.025,0.81l0,2.295l-8.235,0z M89.44854,116.2l0-2.295l2.025-0.81l0-3.483l-4.941-9.288l-1.755-0.729l0-2.295l7.641-0.135l0,2.43l-1.377,0.567l2.7,5.805l2.862-5.778l-1.485-0.594l0-2.295l7.29-0.135l0,2.43l-1.863,0.729l-4.887,9.261l0,3.51l2.025,0.81l0,2.295l-8.235,0z M124.53531,113.905l0,2.295l-8.586,0l0-2.295l2.025-0.729l-0.648-1.971l-5.994,0l-0.675,1.944l2.106,0.756l0,2.295l-8.154,0l0-2.295l1.971-0.756l5.94-15.903l4.32-0.081l5.805,15.984z M116.43531,108.316l-2.025-6.399l-2.133,6.399l4.158,0z"/><path fill="#555e66" d="M143.96781738281,98.27294921875l0-2.35986328125t0.09228515625-2.35986328125q0-0.30322265625,0.402099609375-0.421875t0.784423828125-0.11865234375q0.30322265625,0,0.731689453125,0.11865234375t0.454833984375,0.421875q0.0791015625,0.94921875,0.0791015625,1.905029296875t0.0263671875,1.891845703125q0.052734375,2.5048828125,0.138427734375,4.9833984375t0.138427734375,4.9833984375t0.11865234375,4.989990234375t0.06591796875,5.003173828125q0,0.1845703125-0.151611328125,0.309814453125t-0.375732421875,0.204345703125t-0.468017578125,0.10546875t-0.441650390625,0.0263671875q-0.2109375,0-0.454833984375-0.0263671875t-0.46142578125-0.10546875t-0.362548828125-0.204345703125t-0.17138671875-0.309814453125q0-0.48779296875,0.01318359375-0.98876953125t0.01318359375-1.01513671875q0-4.271484375-0.085693359375-8.5166015625t-0.085693359375-8.5166015625z M154.78284667969,97.646728515625q-0.0263671875-0.349365234375,0.059326171875-0.6591796875t0.322998046875-0.51416015625t0.80419921875-0.204345703125q0.1318359375,0,0.322998046875,0.0263671875t0.38232421875,0.085693359375t0.309814453125,0.164794921875t0.11865234375,0.2900390625q0,0.48779296875,0.032958984375,1.285400390625t0.085693359375,1.6611328125t0.098876953125,1.6875t0.085693359375,1.338134765625q1.0283203125-0.052734375,2.06982421875-0.052734375t2.056640625-0.052734375l1.8193359375-0.052734375l0-1.30517578125q0-2.1884765625-0.085693359375-4.383544921875t-0.296630859375-4.383544921875q0-0.158203125,0.1318359375-0.257080078125t0.309814453125-0.151611328125t0.369140625-0.06591796875t0.296630859375-0.01318359375q0.30322265625,0,0.652587890625,0.09228515625t0.402099609375,0.3955078125l0.0791015625,0.56689453125q0.32958984375,2.373046875,0.4482421875,4.693359375t0.17138671875,4.640625q0.158203125,0.0263671875,0.336181640625,0.085693359375t0.362548828125,0.112060546875q0.1318359375,0.052734375,0.375732421875,0.158203125t0.243896484375,0.32958984375q0,0.2109375-0.1845703125,0.32958984375t-0.415283203125,0.177978515625t-0.4482421875,0.072509765625t-0.270263671875,0.01318359375q0.0263671875,0.9755859375,0.0263671875,1.944580078125l0,1.944580078125l0,4.25830078125l0,2.373046875q0,0.158203125-0.151611328125,0.283447265625t-0.362548828125,0.204345703125t-0.441650390625,0.10546875t-0.415283203125,0.0263671875t-0.43505859375-0.0263671875t-0.4482421875-0.10546875t-0.349365234375-0.19775390625t-0.151611328125-0.2900390625l0-0.56689453125q0.052734375-2.5048828125,0.11865234375-4.963623046875t0.1318359375-4.937255859375q-1.43701171875,0.052734375-2.920166015625,0.06591796875t-2.946533203125,0.06591796875q0.158203125,1.85888671875,0.362548828125,3.711181640625t0.428466796875,3.711181640625q0,0.158203125-0.151611328125,0.283447265625t-0.35595703125,0.204345703125t-0.43505859375,0.10546875t-0.415283203125,0.0263671875q-0.38232421875,0-0.837158203125-0.1318359375t-0.507568359375-0.48779296875q-0.158203125-1.3974609375-0.296630859375-3.0849609375t-0.243896484375-3.447509765625t-0.164794921875-3.447509765625t-0.059326171875-3.05859375q0-0.32958984375-0.0263671875-0.678955078125z M169.583671875,108.8330078125q0-0.75146484375,0.191162109375-1.549072265625t0.6064453125-1.43701171875t1.048095703125-1.04150390625t1.529296875-0.402099609375q0.67236328125,0,1.417236328125,0.230712890625t1.364501953125,0.6591796875t1.008544921875,1.048095703125t0.388916015625,1.38427734375q0,0.9228515625-0.336181640625,1.75341796875t-0.942626953125,1.483154296875t-1.417236328125,1.0283203125t-1.760009765625,0.375732421875q-0.77783203125,0-1.35791015625-0.283447265625t-0.968994140625-0.758056640625t-0.580078125-1.12060546875t-0.191162109375-1.37109375z M171.52166015625,108.806640625q0,0.2373046875,0.072509765625,0.69873046875t0.217529296875,0.903076171875t0.375732421875,0.7646484375t0.560302734375,0.296630859375q0.69873046875-0.0791015625,1.153564453125-0.454833984375t0.73828125-0.916259765625t0.3955078125-1.17333984375t0.112060546875-1.19970703125q0-0.72509765625-0.283447265625-1.212890625t-0.929443359375-0.791015625q0,0.0263671875,0.0263671875,0.0263671875t0.0263671875-0.0263671875l-0.32958984375-0.0791015625q-0.1318359375-0.052734375-0.322998046875-0.11865234375t-0.375732421875-0.2900390625q-0.51416015625,0.1845703125-0.797607421875,0.474609375t-0.428466796875,0.705322265625t-0.177978515625,0.995361328125t-0.032958984375,1.3974609375z M179.60544433594,105.28002929688q-0.032958984375-0.441650390625,0.052734375-0.810791015625t0.3427734375-0.599853515625t0.823974609375-0.230712890625q0.1318359375,0,0.322998046875,0.032958984375t0.375732421875,0.085693359375t0.309814453125,0.158203125t0.125244140625,0.2900390625l0,1.48974609375q0.51416015625-0.59326171875,1.12060546875-0.850341796875t1.38427734375-0.257080078125q0.59326171875,0,1.17333984375,0.270263671875t1.09423828125,0.718505859375t0.889892578125,0.98876953125t0.547119140625,1.0810546875q0.10546875-0.48779296875,0.2373046875-1.193115234375t0.388916015625-1.351318359375t0.678955078125-1.107421875t1.12060546875-0.46142578125q0.75146484375,0,1.265625,0.54052734375t0.837158203125,1.404052734375t0.48779296875,1.931396484375t0.243896484375,2.109375t0.0791015625,1.944580078125l0,1.417236328125q0,0.158203125-0.11865234375,0.257080078125t-0.296630859375,0.151611328125t-0.369140625,0.06591796875t-0.296630859375,0.01318359375q-0.40869140625,0-0.744873046875-0.125244140625t-0.336181640625-0.639404296875l0-1.1865234375t-0.0263671875-1.535888671875t-0.09228515625-1.64794921875t-0.17138671875-1.496337890625t-0.270263671875-1.0810546875t-0.402099609375-0.421875q-0.32958984375,0-0.474609375,0.369140625t-0.243896484375,0.93603515625t-0.151611328125,1.19970703125t-0.14501953125,1.19970703125t-0.296630859375,0.929443359375t-0.560302734375,0.362548828125q-0.38232421875,0-0.67236328125-0.362548828125t-0.573486328125-0.903076171875t-0.56689453125-1.16015625t-0.626220703125-1.16015625q-0.3427734375-0.5537109375-0.73828125-0.896484375q-0.35595703125-0.32958984375-0.80419921875-0.31640625l-0.06591796875,0q-0.59326171875,0.0263671875-0.929443359375,0.428466796875t-0.51416015625,0.982177734375t-0.217529296875,1.245849609375t-0.03955078125,1.166748046875q0,0.474609375,0.0791015625,1.107421875q0.052734375,0.421875,0.052734375,0.80419921875q0,0.19775390625-0.01318359375,0.38232421875q-0.03955078125,0.5537109375-0.296630859375,0.929443359375t-0.955810546875,0.375732421875q-0.263671875,0-0.6591796875-0.052734375t-0.52734375-0.35595703125q-0.30322265625-0.54052734375-0.46142578125-1.364501953125t-0.2373046875-1.70068359375t-0.09228515625-1.740234375t-0.01318359375-1.483154296875q0-0.43505859375-0.032958984375-0.876708984375z M196.23219726562,109.123046875q0-0.9228515625,0.204345703125-2.17529296875t0.692138671875-2.373046875t1.285400390625-1.905029296875t2.010498046875-0.784423828125q1.1337890625,0,1.70068359375,0.652587890625t0.56689453125,1.760009765625q0,0.72509765625-0.270263671875,1.588623046875t-0.771240234375,1.634765625t-1.1865234375,1.285400390625t-1.529296875,0.51416015625l-0.3427734375-0.0263671875q0,0.35595703125,0.10546875,0.955810546875t0.309814453125,1.193115234375t0.52734375,1.04150390625t0.784423828125,0.4482421875q0.67236328125,0,1.2919921875-0.54052734375t1.17333984375-1.19970703125t1.0283203125-1.19970703125t0.8701171875-0.54052734375q0.2109375,0,0.43505859375,0.06591796875t0.25048828125,0.369140625q0,0.1845703125-0.098876953125,0.30322265625t-0.177978515625,0.263671875q-0.40869140625,0.69873046875-0.889892578125,1.33154296875t-1.087646484375,1.14697265625t-1.324951171875,0.810791015625t-1.588623046875,0.296630859375q-1.1337890625,0-1.88525390625-0.402099609375t-1.212890625-1.0810546875t-0.665771484375-1.56884765625t-0.204345703125-1.865478515625z M198.59206054687,108.12109375l0.369140625,0.32958984375q0.263671875,0.2373046875,0.52734375,0.10546875t0.474609375-0.481201171875t0.388916015625-0.863525390625t0.31640625-1.0546875t0.204345703125-1.0546875t0.06591796875-0.85693359375l0-0.4482421875t-0.03955078125-0.474609375t-0.138427734375-0.375732421875t-0.309814453125-0.191162109375q-0.06591796875-0.01318359375-0.11865234375-0.01318359375q-0.4482421875,0-0.7646484375,0.56689453125q-0.3427734375,0.6328125-0.5537109375,1.535888671875t-0.30322265625,1.852294921875t-0.11865234375,1.423828125z M212.41294921875,111.28515625q0.0791015625-2.1357421875,0.138427734375-4.376953125t0.112060546875-4.423095703125t0.0791015625-4.238525390625t0.0263671875-3.83642578125q0.0263671875-0.35595703125,0.61962890625-0.56689453125t1.417236328125-0.309814453125t1.740234375-0.125244140625t1.628173828125-0.0263671875q0.158203125,0,0.6591796875-0.01318359375l0.25048828125,0q0.38232421875,0,0.80419921875,0.0263671875q0.5537109375,0.03955078125,0.968994140625,0.17138671875t0.415283203125,0.38232421875q0,0.1845703125-0.14501953125,0.296630859375t-0.336181640625,0.164794921875t-0.3955078125,0.06591796875t-0.283447265625,0.01318359375q-1.2392578125,0-2.4521484375-0.03955078125q-0.32958984375-0.01318359375-0.67236328125-0.01318359375q-0.896484375,0-1.8193359375,0.0791015625q0.052734375,0.158203125,0.085693359375,0.955810546875t0.032958984375,1.799560546875t-0.01318359375,1.957763671875t0,1.469970703125l0,3.427734375q0.40869140625-0.0263671875,0.80419921875-0.0263671875l0.791015625,0l0.52734375-0.0263671875q0.263671875-0.01318359375,0.5537109375-0.01318359375q0.30322265625,0,0.61962890625,0.01318359375q0.6328125,0.0263671875,1.153564453125,0.151611328125t0.520751953125,0.441650390625q0,0.2373046875-0.19775390625,0.349365234375t-0.441650390625,0.164794921875t-0.46142578125,0.052734375l-0.243896484375,0q-0.75146484375,0-1.562255859375-0.052734375t-1.509521484375-0.052734375q-0.1318359375,0.052734375-0.283447265625,0.03955078125t-0.270263671875-0.01318359375q0,1.9775390625-0.03955078125,3.935302734375t-0.09228515625,3.895751953125q0,0.38232421875-0.481201171875,0.5009765625t-0.916259765625,0.11865234375q-0.48779296875,0-0.771240234375-0.11865234375t-0.402099609375-0.388916015625t-0.14501953125-0.718505859375q-0.01318359375-0.25048828125-0.0263671875-0.5537109375q0-0.25048828125,0.01318359375-0.54052734375z M222.62588378906,107.42236328125q0-0.263671875,0.059326171875-0.69873046875t0.138427734375-0.863525390625t0.1845703125-0.797607421875t0.25048828125-0.474609375q0.10546875-0.10546875,0.362548828125-0.2109375t0.54052734375-0.151611328125t0.52734375,0.03955078125t0.296630859375,0.349365234375q-0.1845703125,0.2373046875-0.336181640625,0.810791015625t-0.230712890625,1.272216796875q-0.06591796875,0.59326171875-0.06591796875,1.22607421875l0,0.22412109375q0.01318359375,0.73828125,0.1318359375,1.35791015625t0.362548828125,1.021728515625t0.678955078125,0.402099609375q0.9228515625,0,1.6875-0.850341796875t1.35791015625-2.076416015625t1.04150390625-2.603759765625t0.7646484375-2.406005859375q0.0791015625-0.30322265625,0.375732421875-0.40869140625t0.639404296875-0.072509765625t0.613037109375,0.164794921875t0.322998046875,0.31640625q-0.263671875,2.21484375-0.415283203125,4.4296875t-0.151611328125,4.4560546875q0,0.43505859375,0.03955078125,0.797607421875t-0.03955078125,0.61962890625t-0.349365234375,0.40869140625t-0.863525390625,0.151611328125q-0.1318359375,0-0.336181640625-0.0263671875t-0.421875-0.085693359375t-0.369140625-0.177978515625t-0.151611328125-0.27685546875q0-0.9755859375,0.072509765625-2.00390625t0.204345703125-1.99072265625q-0.35595703125,0.51416015625-0.784423828125,1.021728515625t-0.942626953125,0.916259765625t-1.107421875,0.652587890625t-1.27880859375,0.243896484375q-0.9755859375,0-1.535888671875-0.46142578125t-0.84375-1.153564453125t-0.35595703125-1.509521484375t-0.072509765625-1.58203125z M235.02729492188,104.89111328125q0-0.54052734375,0.191162109375-0.90966796875t0.810791015625-0.369140625q0.2373046875,0,0.59326171875,0.072509765625t0.40869140625,0.362548828125q0.1318359375,0.77783203125,0.14501953125,1.6875t0.09228515625,1.7138671875q0.30322265625-0.59326171875,0.77783203125-1.27880859375t1.0810546875-1.265625t1.318359375-0.96240234375t1.4501953125-0.38232421875q0.052734375,0,0.19775390625,0.03955078125t0.270263671875,0.112060546875t0.151611328125,0.164794921875t-0.14501953125,0.17138671875q-0.052734375,0.158203125-0.22412109375,0.191162109375t-0.30322265625,0.032958984375q-0.0791015625,0-0.25048828125-0.06591796875q-0.9755859375,0.51416015625-1.6611328125,1.3974609375t-1.12060546875,1.957763671875t-0.6328125,2.267578125t-0.19775390625,2.326904296875q0,0.56689453125-0.257080078125,0.685546875t-0.823974609375,0.11865234375q-0.30322265625,0-0.639404296875-0.06591796875t-0.468017578125-0.421875q-0.2373046875-0.75146484375-0.388916015625-1.72705078125t-0.230712890625-2.010498046875t-0.112060546875-2.036865234375t-0.032958984375-1.80615234375z M244.40966308594,108.6484375l0-0.38232421875q0-0.474609375,0.0263671875-0.896484375q0.0263671875-0.59326171875,0.0263671875-0.9755859375q0-0.2109375,0.0263671875-0.481201171875t0.1318359375-0.428466796875q0.1318359375-0.1318359375,0.309814453125-0.270263671875t0.388916015625-0.138427734375q0.67236328125,0,1.0546875,0.151611328125t0.40869140625,0.626220703125l0.052734375,0.40869140625q0.2373046875-0.56689453125,0.6328125-1.404052734375t0.916259765625-1.59521484375t1.17333984375-1.2919921875t1.377685546875-0.533935546875q0.67236328125,0,1.107421875,0.6328125t0.692138671875,1.614990234375t0.362548828125,2.1884765625t0.14501953125,2.366455078125t0.052734375,2.115966796875t0.09228515625,1.443603515625q0.052734375,0.40869140625,0.177978515625,0.863525390625t0.125244140625,0.837158203125q0,0.10546875-0.151611328125,0.204345703125t-0.322998046875,0.164794921875t-0.349365234375,0.10546875t-0.257080078125,0.03955078125q-0.51416015625,0-0.731689453125-0.771240234375t-0.270263671875-1.931396484375t-0.052734375-2.511474609375t-0.09228515625-2.511474609375t-0.375732421875-1.931396484375t-0.903076171875-0.797607421875q-0.56689453125,0-1.17333984375,0.731689453125t-1.04150390625,1.944580078125q-0.421875,1.212890625-0.580078125,2.75537109375q-0.052734375,0.48779296875-0.052734375,0.9755859375q0,1.06787109375,0.22412109375,2.1357421875q0.0263671875,0.1845703125-0.151611328125,0.27685546875t-0.441650390625,0.14501953125t-0.533935546875,0.06591796875t-0.415283203125,0.01318359375q-0.51416015625,0-0.823974609375-0.362548828125t-0.481201171875-0.929443359375t-0.230712890625-1.272216796875t-0.072509765625-1.390869140625z M256.38919921875,108.26611328125q0-1.212890625,0.283447265625-2.379638671875t0.481201171875-2.326904296875q0.052734375-0.30322265625,0.415283203125-0.375732421875t0.613037109375-0.072509765625q0.43505859375,0,0.69873046875,0.1318359375q0.10546875,0.052734375,0.19775390625,0.11865234375t0.09228515625,0.17138671875q0,1.1337890625-0.270263671875,2.21484375t-0.270263671875,2.2939453125q0,0.40869140625,0.059326171875,0.771240234375t0.112060546875,0.718505859375l0.0791015625,0.38232421875q0,0.10546875,0.01318359375,0.1845703125t0.03955078125,0.1845703125q0,0.2373046875-0.336181640625,0.322998046875t-0.586669921875,0.085693359375q-0.38232421875,0-0.705322265625-0.151611328125t-0.507568359375-0.520751953125l-0.1845703125-0.38232421875q-0.158203125-0.30322265625-0.158203125-0.678955078125t-0.06591796875-0.692138671875z M257.23294921875,100.32958984375l0-0.25048828125q0-0.61962890625,0.309814453125-1.107421875t0.929443359375-0.48779296875q0.0791015625,0,0.151611328125,0.01318359375t0.151611328125,0.01318359375q0.158203125,0.0263671875,0.415283203125,0.125244140625t0.257080078125,0.309814453125l0,0.0263671875q-0.052734375,0.10546875-0.06591796875,0.217529296875t-0.06591796875,0.191162109375l0.0263671875-0.0263671875q-0.158203125,0.40869140625-0.257080078125,0.6591796875t-0.217529296875,0.402099609375t-0.296630859375,0.217529296875t-0.507568359375,0.06591796875q-0.052734375,0-0.1845703125-0.01318359375t-0.283447265625-0.052734375t-0.257080078125-0.10546875t-0.10546875-0.19775390625z M261.60555175781,100.2109375q0-0.1845703125,0.3955078125-0.31640625t0.896484375-0.217529296875t0.968994140625-0.125244140625t0.639404296875-0.06591796875q0-0.35595703125,0.0263671875-0.718505859375t0.14501953125-0.64599609375t0.375732421875-0.454833984375t0.718505859375-0.17138671875q0.38232421875,0,0.580078125,0.09228515625t0.421875,0.38232421875q0.052734375,0.158203125,0.052734375,0.30322265625l0,0.441650390625t-0.0263671875,0.454833984375q0.48779296875-0.052734375,0.968994140625-0.125244140625t0.968994140625-0.072509765625q0.35595703125,0,0.48779296875,0.01318359375t0.263671875,0.31640625q0.10546875,0.30322265625-0.257080078125,0.46142578125t-0.8701171875,0.2373046875t-1.008544921875,0.11865234375t-0.6064453125,0.03955078125q-0.158203125,2.267578125-0.322998046875,4.49560546875t-0.164794921875,4.52197265625q0,1.0283203125,0.06591796875,2.12255859375t0.369140625,2.06982421875q0.0791015625,0.30322265625,0.263671875,0.56689453125t0.1845703125,0.56689453125q0,0.1845703125-0.14501953125,0.2900390625t-0.349365234375,0.177978515625t-0.40869140625,0.085693359375t-0.336181640625,0.01318359375q-0.83056640625,0-1.265625-0.61962890625t-0.626220703125-1.483154296875t-0.204345703125-1.773193359375t-0.01318359375-1.4765625q0-1.16015625,0.046142578125-2.373046875t0.112060546875-2.3994140625t0.1845703125-2.3203125t0.27685546875-2.109375q-0.46142578125,0.052734375-0.903076171875,0.11865234375t-0.903076171875,0.06591796875q-0.10546875,0-0.283447265625-0.01318359375t-0.336181640625-0.06591796875t-0.270263671875-0.14501953125t-0.112060546875-0.263671875z M271.14612304688,107.42236328125q0-0.263671875,0.059326171875-0.69873046875t0.138427734375-0.863525390625t0.1845703125-0.797607421875t0.25048828125-0.474609375q0.10546875-0.10546875,0.362548828125-0.2109375t0.54052734375-0.151611328125t0.52734375,0.03955078125t0.296630859375,0.349365234375q-0.1845703125,0.2373046875-0.336181640625,0.810791015625t-0.230712890625,1.272216796875q-0.06591796875,0.59326171875-0.06591796875,1.22607421875l0,0.22412109375q0.01318359375,0.73828125,0.1318359375,1.35791015625t0.362548828125,1.021728515625t0.678955078125,0.402099609375q0.9228515625,0,1.6875-0.850341796875t1.35791015625-2.076416015625t1.04150390625-2.603759765625t0.7646484375-2.406005859375q0.0791015625-0.30322265625,0.375732421875-0.40869140625t0.639404296875-0.072509765625t0.613037109375,0.164794921875t0.322998046875,0.31640625q-0.263671875,2.21484375-0.415283203125,4.4296875t-0.151611328125,4.4560546875q0,0.43505859375,0.03955078125,0.797607421875t-0.03955078125,0.61962890625t-0.349365234375,0.40869140625t-0.863525390625,0.151611328125q-0.1318359375,0-0.336181640625-0.0263671875t-0.421875-0.085693359375t-0.369140625-0.177978515625t-0.151611328125-0.27685546875q0-0.9755859375,0.072509765625-2.00390625t0.204345703125-1.99072265625q-0.35595703125,0.51416015625-0.784423828125,1.021728515625t-0.942626953125,0.916259765625t-1.107421875,0.652587890625t-1.27880859375,0.243896484375q-0.9755859375,0-1.535888671875-0.46142578125t-0.84375-1.153564453125t-0.35595703125-1.509521484375t-0.072509765625-1.58203125z M283.54753417969,104.89111328125q0-0.54052734375,0.191162109375-0.90966796875t0.810791015625-0.369140625q0.2373046875,0,0.59326171875,0.072509765625t0.40869140625,0.362548828125q0.1318359375,0.77783203125,0.14501953125,1.6875t0.09228515625,1.7138671875q0.30322265625-0.59326171875,0.77783203125-1.27880859375t1.0810546875-1.265625t1.318359375-0.96240234375t1.4501953125-0.38232421875q0.052734375,0,0.19775390625,0.03955078125t0.270263671875,0.112060546875t0.151611328125,0.164794921875t-0.14501953125,0.17138671875q-0.052734375,0.158203125-0.22412109375,0.191162109375t-0.30322265625,0.032958984375q-0.0791015625,0-0.25048828125-0.06591796875q-0.9755859375,0.51416015625-1.6611328125,1.3974609375t-1.12060546875,1.957763671875t-0.6328125,2.267578125t-0.19775390625,2.326904296875q0,0.56689453125-0.257080078125,0.685546875t-0.823974609375,0.11865234375q-0.30322265625,0-0.639404296875-0.06591796875t-0.468017578125-0.421875q-0.2373046875-0.75146484375-0.388916015625-1.72705078125t-0.230712890625-2.010498046875t-0.112060546875-2.036865234375t-0.032958984375-1.80615234375z M292.91671875,109.123046875q0-0.9228515625,0.204345703125-2.17529296875t0.692138671875-2.373046875t1.285400390625-1.905029296875t2.010498046875-0.784423828125q1.1337890625,0,1.70068359375,0.652587890625t0.56689453125,1.760009765625q0,0.72509765625-0.270263671875,1.588623046875t-0.771240234375,1.634765625t-1.1865234375,1.285400390625t-1.529296875,0.51416015625l-0.3427734375-0.0263671875q0,0.35595703125,0.10546875,0.955810546875t0.309814453125,1.193115234375t0.52734375,1.04150390625t0.784423828125,0.4482421875q0.67236328125,0,1.2919921875-0.54052734375t1.17333984375-1.19970703125t1.0283203125-1.19970703125t0.8701171875-0.54052734375q0.2109375,0,0.43505859375,0.06591796875t0.25048828125,0.369140625q0,0.1845703125-0.098876953125,0.30322265625t-0.177978515625,0.263671875q-0.40869140625,0.69873046875-0.889892578125,1.33154296875t-1.087646484375,1.14697265625t-1.324951171875,0.810791015625t-1.588623046875,0.296630859375q-1.1337890625,0-1.88525390625-0.402099609375t-1.212890625-1.0810546875t-0.665771484375-1.56884765625t-0.204345703125-1.865478515625z M295.27658203125,108.12109375l0.369140625,0.32958984375q0.263671875,0.2373046875,0.52734375,0.10546875t0.474609375-0.481201171875t0.388916015625-0.863525390625t0.31640625-1.0546875t0.204345703125-1.0546875t0.06591796875-0.85693359375l0-0.4482421875t-0.03955078125-0.474609375t-0.138427734375-0.375732421875t-0.309814453125-0.191162109375q-0.06591796875-0.01318359375-0.11865234375-0.01318359375q-0.4482421875,0-0.7646484375,0.56689453125q-0.3427734375,0.6328125-0.5537109375,1.535888671875t-0.30322265625,1.852294921875t-0.11865234375,1.423828125z M303.93385253906,109.0966796875q0-1.0546875,0.46142578125-1.997314453125t1.193115234375-1.740234375t1.6083984375-1.456787109375t1.707275390625-1.19970703125q-0.263671875-0.75146484375-0.468017578125-1.430419921875t-0.204345703125-1.509521484375q0-1.0810546875,0.349365234375-1.957763671875t0.98876953125-1.5029296875t1.529296875-0.9755859375t1.970947265625-0.349365234375q0.56689453125,0,1.16015625,0.177978515625t1.0810546875,0.52734375t0.784423828125,0.850341796875t0.296630859375,1.14697265625q0,0.9755859375-0.52734375,1.77978515625t-1.298583984375,1.483154296875t-1.64794921875,1.232666015625t-1.575439453125,1.01513671875q0.1845703125,0.38232421875,0.375732421875,0.758056640625t0.402099609375,0.744873046875q0.51416015625-0.2373046875,1.272216796875-0.626220703125t1.549072265625-0.850341796875t1.496337890625-0.896484375t1.166748046875-0.75146484375q0.2373046875-0.1845703125,0.481201171875-0.428466796875t0.48779296875-0.46142578125t0.507568359375-0.38232421875t0.59326171875-0.164794921875q0.35595703125,0,0.692138671875,0.06591796875t0.415283203125,0.4482421875q0.0791015625,0.40869140625-0.54052734375,0.90966796875t-1.469970703125,0.955810546875t-1.67431640625,0.810791015625t-1.114013671875,0.48779296875q1.64794921875,0.1845703125,2.373046875,1.25244140625t0.72509765625,2.6103515625q0,1.1337890625-0.441650390625,2.063232421875t-1.232666015625,1.707275390625q0.1318359375,0.1318359375,0.6328125,0.64599609375t1.06787109375,1.114013671875t1.01513671875,1.0810546875t0.474609375,0.533935546875q-0.052734375,0.263671875-0.375732421875,0.336181640625t-0.547119140625,0.072509765625q-0.38232421875,0-0.876708984375-0.349365234375t-1.008544921875-0.837158203125t-0.955810546875-0.9755859375t-0.718505859375-0.75146484375q-1.16015625,0.61962890625-2.458740234375,0.876708984375t-2.590576171875,0.257080078125q-0.9755859375,0-2.21484375-0.217529296875t-2.33349609375-0.718505859375t-1.839111328125-1.338134765625t-0.744873046875-2.076416015625z M306.63648925781,109.017578125q0,0.8701171875,0.43505859375,1.4765625t1.09423828125,0.995361328125t1.456787109375,0.580078125t1.522705078125,0.191162109375q0.94921875,0,1.96435546875-0.283447265625t1.740234375-0.903076171875q-0.77783203125-0.83056640625-1.549072265625-1.6875t-1.483154296875-1.740234375q-0.158203125,0.263671875-0.27685546875,0.560302734375t-0.11865234375,0.626220703125q0,0.40869140625,0.2373046875,0.67236328125q0.158203125,0.10546875,0.5009765625,0.283447265625t0.3427734375,0.388916015625q0,0.1845703125-0.151611328125,0.309814453125t-0.35595703125,0.177978515625t-0.402099609375,0.0791015625t-0.3427734375,0.0263671875q-0.40869140625,0-0.850341796875-0.11865234375t-0.791015625-0.362548828125t-0.580078125-0.6064453125t-0.230712890625-0.850341796875q0-0.43505859375,0.164794921875-0.8701171875t0.421875-0.810791015625t0.56689453125-0.7119140625t0.626220703125-0.613037109375q-0.2373046875-0.38232421875-0.468017578125-0.758056640625t-0.415283203125-0.744873046875q-0.54052734375,0.38232421875-1.0810546875,0.903076171875t-0.9755859375,1.127197265625t-0.718505859375,1.298583984375t-0.283447265625,1.364501953125z M310.44654785156,99.841796875q0,0.896484375,0.2373046875,1.70068359375q0.46142578125-0.1318359375,0.98876953125-0.6064453125t0.98876953125-1.107421875t0.810791015625-1.324951171875t0.454833984375-1.259033203125t-0.09228515625-0.929443359375t-0.8173828125-0.336181640625q-0.69873046875,0.0263671875-1.19970703125,0.388916015625t-0.80419921875,0.916259765625t-0.43505859375,1.232666015625t-0.1318359375,1.324951171875z M313.07008300781,106.20947265625q0.64599609375,0.94921875,1.364501953125,1.845703125t1.496337890625,1.7666015625q0.30322265625-0.51416015625,0.421875-1.034912109375t0.11865234375-1.114013671875q0-0.263671875-0.03955078125-0.7119140625t-0.177978515625-0.8701171875t-0.369140625-0.744873046875t-0.573486328125-0.375732421875l-0.0263671875-0.0263671875q-0.10546875,0-0.43505859375,0.158203125t-0.678955078125,0.375732421875t-0.67236328125,0.43505859375t-0.428466796875,0.296630859375z M323.50713867188,95.16162109375q0-0.9228515625,0.31640625-1.2392578125t0.88330078125-0.31640625q0.158203125,0,0.336181640625,0.0263671875t0.336181640625,0.0791015625q0.88330078125-0.17138671875,1.67431640625-0.17138671875q1.27880859375,0,2.3203125,0.4482421875q1.67431640625,0.7119140625,2.7685546875,2.109375t1.6083984375,3.28271484375t0.51416015625,3.86279296875q0,1.107421875-0.151611328125,2.30712890625t-0.586669921875,2.22802734375q-0.38232421875,0.9228515625-1.0546875,1.931396484375t-1.522705078125,1.91162109375t-1.83251953125,1.58203125t-1.984130859375,0.916259765625l0,0.10546875q0,0.263671875-0.138427734375,0.428466796875t-0.336181640625,0.25048828125t-0.454833984375,0.112060546875t-0.481201171875,0.0263671875q-0.1318359375,0-0.375732421875-0.0263671875t-0.474609375-0.098876953125t-0.388916015625-0.191162109375t-0.158203125-0.32958984375q0-2.3994140625-0.125244140625-4.805419921875t-0.283447265625-4.81201171875t-0.283447265625-4.805419921875t-0.125244140625-4.81201171875z M325.99883789063,94.4892578125q0.1318359375,1.265625,0.17138671875,2.524658203125t0.11865234375,2.524658203125q0.2109375,3.26953125,0.48779296875,6.506103515625t0.32958984375,6.506103515625q1.265625-0.83056640625,2.168701171875-1.8984375t1.483154296875-2.3203125t0.850341796875-2.630126953125t0.270263671875-2.841064453125q0-1.0546875-0.1845703125-2.3203125t-0.6328125-2.43896484375t-1.206298828125-2.12255859375t-1.891845703125-1.35791015625q-0.2373046875-0.0791015625-0.573486328125-0.1318359375t-1.074462890625-0.052734375q-0.0791015625,0-0.158203125,0.0263671875t-0.158203125,0.0263671875z M336.95005371094,109.123046875q0-0.9228515625,0.204345703125-2.17529296875t0.692138671875-2.373046875t1.285400390625-1.905029296875t2.010498046875-0.784423828125q1.1337890625,0,1.70068359375,0.652587890625t0.56689453125,1.760009765625q0,0.72509765625-0.270263671875,1.588623046875t-0.771240234375,1.634765625t-1.1865234375,1.285400390625t-1.529296875,0.51416015625l-0.3427734375-0.0263671875q0,0.35595703125,0.10546875,0.955810546875t0.309814453125,1.193115234375t0.52734375,1.04150390625t0.784423828125,0.4482421875q0.67236328125,0,1.2919921875-0.54052734375t1.17333984375-1.19970703125t1.0283203125-1.19970703125t0.8701171875-0.54052734375q0.2109375,0,0.43505859375,0.06591796875t0.25048828125,0.369140625q0,0.1845703125-0.098876953125,0.30322265625t-0.177978515625,0.263671875q-0.40869140625,0.69873046875-0.889892578125,1.33154296875t-1.087646484375,1.14697265625t-1.324951171875,0.810791015625t-1.588623046875,0.296630859375q-1.1337890625,0-1.88525390625-0.402099609375t-1.212890625-1.0810546875t-0.665771484375-1.56884765625t-0.204345703125-1.865478515625z M339.30991699219,108.12109375l0.369140625,0.32958984375q0.263671875,0.2373046875,0.52734375,0.10546875t0.474609375-0.481201171875t0.388916015625-0.863525390625t0.31640625-1.0546875t0.204345703125-1.0546875t0.06591796875-0.85693359375l0-0.4482421875t-0.03955078125-0.474609375t-0.138427734375-0.375732421875t-0.309814453125-0.191162109375q-0.06591796875-0.01318359375-0.11865234375-0.01318359375q-0.4482421875,0-0.7646484375,0.56689453125q-0.3427734375,0.6328125-0.5537109375,1.535888671875t-0.30322265625,1.852294921875t-0.11865234375,1.423828125z M347.9671875,108.31884765625q0-0.94921875,0.243896484375-1.905029296875t0.758056640625-1.7138671875t1.311767578125-1.232666015625t1.878662109375-0.474609375q0.46142578125,0,1.01513671875,0.112060546875t1.021728515625,0.35595703125t0.791015625,0.6328125t0.322998046875,0.955810546875q0,0.35595703125-0.1845703125,0.474609375t-0.48779296875,0.11865234375l-0.09228515625-0.1318359375t-0.257080078125-0.336181640625t-0.349365234375-0.43505859375t-0.35595703125-0.388916015625q-0.54052734375-0.54052734375-1.01513671875-0.580078125l-0.10546875,0q-0.3955078125,0-0.73828125,0.2373046875q-0.38232421875,0.2900390625-0.678955078125,0.8173828125t-0.494384765625,1.12060546875t-0.309814453125,1.19970703125t-0.112060546875,1.001953125q0,0.54052734375,0.125244140625,1.232666015625t0.421875,1.311767578125t0.75146484375,1.04150390625t1.166748046875,0.421875q0.64599609375,0,1.17333984375-0.31640625t1.008544921875-0.705322265625t0.942626953125-0.69873046875t0.94921875-0.309814453125q0.2109375,0,0.428466796875,0.052734375t0.217529296875,0.27685546875l0,0.0791015625q-0.2373046875,0.61962890625-0.80419921875,1.09423828125t-1.272216796875,0.823974609375t-1.46337890625,0.520751953125t-1.351318359375,0.17138671875q-1.107421875,0-1.944580078125-0.362548828125t-1.390869140625-0.995361328125t-0.837158203125-1.522705078125t-0.283447265625-1.944580078125z M359.20844238281,108.8330078125q0-0.75146484375,0.191162109375-1.549072265625t0.6064453125-1.43701171875t1.048095703125-1.04150390625t1.529296875-0.402099609375q0.67236328125,0,1.417236328125,0.230712890625t1.364501953125,0.6591796875t1.008544921875,1.048095703125t0.388916015625,1.38427734375q0,0.9228515625-0.336181640625,1.75341796875t-0.942626953125,1.483154296875t-1.417236328125,1.0283203125t-1.760009765625,0.375732421875q-0.77783203125,0-1.35791015625-0.283447265625t-0.968994140625-0.758056640625t-0.580078125-1.12060546875t-0.191162109375-1.37109375z M361.14643066406,108.806640625q0,0.2373046875,0.072509765625,0.69873046875t0.217529296875,0.903076171875t0.375732421875,0.7646484375t0.560302734375,0.296630859375q0.69873046875-0.0791015625,1.153564453125-0.454833984375t0.73828125-0.916259765625t0.3955078125-1.17333984375t0.112060546875-1.19970703125q0-0.72509765625-0.283447265625-1.212890625t-0.929443359375-0.791015625q0,0.0263671875,0.0263671875,0.0263671875t0.0263671875-0.0263671875l-0.32958984375-0.0791015625q-0.1318359375-0.052734375-0.322998046875-0.11865234375t-0.375732421875-0.2900390625q-0.51416015625,0.1845703125-0.797607421875,0.474609375t-0.428466796875,0.705322265625t-0.177978515625,0.995361328125t-0.032958984375,1.3974609375z"/></svg>
